<?xml version="1.0" encoding="utf-8"?>
<!-- Generator: Adobe Illustrator 21.0.2, SVG Export Plug-In . SVG Version: 6.00 Build 0)  -->
<svg version="1.1" id="Layer_1" xmlns="http://www.w3.org/2000/svg" xmlns:xlink="http://www.w3.org/1999/xlink" x="0px" y="0px"
	 width="40px" height="40px" viewBox="0 0 40 40" style="enable-background:new 0 0 40 40;" xml:space="preserve">
<style type="text/css">
	.st0{fill:#409BD6;}
	.st1{fill:#FFFFFF;}
</style>
<g>
	<rect class="st0" width="40" height="40"/>
	<path class="st1" d="M15.4,30.2c9.4,0,14.6-7.8,14.6-14.6c0-0.3,0-0.4,0-0.7c1-0.7,1.9-1.6,2.6-2.7c-1,0.4-1.9,0.7-3,0.8
		c1.1-0.7,1.9-1.6,2.3-2.9c-1,0.5-2,1-3.3,1.2c-1-1-2.3-1.6-3.8-1.6c-2.9,0-5.2,2.3-5.2,5.2c0,0.4,0,0.8,0.1,1.2
		c-4.2-0.3-8-2.3-10.6-5.3c-0.4,0.8-0.7,1.6-0.7,2.6c0,1.8,1,3.4,2.3,4.2c-0.8,0-1.6-0.3-2.3-0.7l0,0c0,2.4,1.8,4.6,4.1,5
		c-0.4,0.1-1,0.1-1.4,0.1c-0.3,0-0.7,0-1-0.1c0.7,2,2.6,3.5,4.8,3.5c-1.8,1.4-3.9,2.2-6.4,2.2c-0.4,0-0.8,0-1.2-0.1
		C9.8,29.3,12.5,30.2,15.4,30.2"/>
</g>
</svg>
